<?xml version="1.0" encoding="utf-8"?>
<!-- Svg Vector Icons : http://www.onlinewebfonts.com/icon -->
<!DOCTYPE svg PUBLIC "-//W3C//DTD SVG 1.1//EN" "http://www.w3.org/Graphics/SVG/1.1/DTD/svg11.dtd">
<svg version="1.1" xmlns="http://www.w3.org/2000/svg" xmlns:xlink="http://www.w3.org/1999/xlink" x="0px" y="0px" viewBox="0 0 256 256" enable-background="new 0 0 256 256" xml:space="preserve">
<metadata> Svg Vector Icons : http://www.onlinewebfonts.com/icon </metadata>
<g><g><path fill="#000000" d="M128,10C62.8,10,10,62.8,10,128c0,65.2,52.8,118,118,118c65.2,0,118-52.8,118-118C246,62.8,193.2,10,128,10z M128,221.3c-9.1,0-16.5-7.4-16.5-16.5c0-9.1,7.4-16.5,16.5-16.5c9.1,0,16.5,7.4,16.5,16.5C144.5,213.9,137.1,221.3,128,221.3z M150.9,146.2c-0.1,0-0.2,0.1-0.3,0.1c-6.3,3-10.4,9.4-10.4,16.4c0,6.7-5.5,12.2-12.2,12.2c-6.7,0-12.2-5.5-12.2-12.2c0-16.3,9.5-31.3,24.1-38.3c0.1,0,0.2-0.1,0.3-0.1c10-4.7,16.5-14.9,16.5-26c0-15.8-12.9-28.7-28.7-28.7S99.2,82.4,99.2,98.3c0,6.7-5.5,12.2-12.2,12.2c-6.7,0-12.2-5.5-12.2-12.2c0-29.3,23.8-53.1,53.1-53.1c29.3,0,53.1,23.8,53.1,53.1C181.1,118.7,169.3,137.4,150.9,146.2z"/></g></g>
</svg>